<?xml version="1.0" encoding="utf-8"?>
<!-- Generator: Adobe Illustrator 26.3.1, SVG Export Plug-In . SVG Version: 6.00 Build 0)  -->
<svg version="1.1" id="Layer_1" xmlns="http://www.w3.org/2000/svg" xmlns:xlink="http://www.w3.org/1999/xlink" x="0px" y="0px"
	 viewBox="0 0 652.2 233.8" style="enable-background:new 0 0 652.2 233.8;" xml:space="preserve">
<style type="text/css">
	.st0{fill:#3C2D4D;}
	.st1{fill:#FFB448;}
</style>
<path class="st0" d="M582.1,195.1c-5.2,0-7.3-6.3-7.3-12.7c0-7.3,2.8-11.6,6.7-11.6c4.3,0,6.1,3.5,6.1,9.5v11.2
	C586.7,193.4,584.4,195.1,582.1,195.1 M598.6,194.3c-2,0-2.7-1-2.7-3.6v-34.7h-1.8l-10.5,2.6v2.3l0.8,0.2c2.4,0.6,3,1.6,3,3.6v4.3
	c-1.5-0.9-3.5-1.6-6.1-1.6c-8.7,0-15.4,6.6-15.4,17.3c0,8.1,4.5,15.2,13.2,15.2c3.5,0,6.6-2.1,8.3-5.5v5.5h1.8l10.9-2.9v-2.7
	L598.6,194.3L598.6,194.3z M560.1,192.6v-14.8c0-6.5-3.4-10.4-9.5-10.4c-3.7,0-6.8,1.9-9.8,6.4v-6.4H539l-10.5,2.6v2.3l0.8,0.2
	c2.4,0.5,3,1.6,3,3.6v16.5c0,2.5-1.1,3.2-3.9,3.8v2.7h16.2v-2.7c-2.8-0.6-3.9-1.3-3.9-3.8v-16c2.4-2.8,4.4-3.6,6.2-3.6
	c3.2,0,4.7,2.1,4.7,5.6v14c0,2.5-1,3.2-3.3,3.8v2.7H564v-2.7C561.2,195.7,560.1,195,560.1,192.6 M507.6,195c-2.3,0-4.1-1.9-4.1-4.4
	c0-3.5,1.9-5.6,7-6.9l2.5-0.6v7.9C511.8,193.8,510,195,507.6,195 M525,194.3c-3,0-3.6-1.1-3.6-4.1v-11.1c0-7-4.4-11.7-12.6-11.7
	c-7.8,0-13.5,4.3-13.5,9.5c0,1.3,0.4,2.6,1.2,3.9l7.2-2.4c-0.7-1.1-1-2.3-1-3.4c0-2.6,1.6-4.6,4.5-4.6c3.6,0,5.8,3.1,5.8,8.1v1.7
	l-3.3,0.7c-7.5,1.7-14.9,3.8-14.9,10.6c0,5,3.5,8.4,8.6,8.4c4.4,0,7.3-1.7,9.6-5.8v5.8h1.8l10.9-2.9v-2.7L525,194.3L525,194.3z
	 M488.2,155.9h-1.8l-10.5,2.6v2.3l0.8,0.2c2.4,0.6,3,1.6,3,3.6v27.9c0,2.5-1.1,3.2-3.9,3.8v2.7h16.2v-2.7c-2.8-0.6-3.9-1.3-3.9-3.8
	L488.2,155.9L488.2,155.9z M461.3,167.4c-7.6,0-12.5,3.7-12.5,9.6c0.1,12.1,18.2,7.9,18.3,15.5c0,3-2.7,4.5-5.2,4.5
	c-3.2,0-6.1-2.6-8.7-7.8l-5.7,5.2c1.8,2.4,7.3,5.5,13.7,5.5c7.8,0,12.4-4.6,12.5-9.6c0.1-12.9-18.3-9.1-18.3-16.1
	c0-2.3,2.4-3.8,5-3.8c3.2,0,5.7,2.3,7.8,7l5.1-5.8C471.9,170,468.2,167.4,461.3,167.4 M440.8,192.6v-14.8c0-6.5-3.4-10.4-9.5-10.4
	c-3.7,0-6.8,1.9-9.8,6.4v-6.4h-1.8l-10.5,2.6v2.3l0.9,0.2c2.4,0.5,3,1.6,3,3.6v16.5c0,2.5-1.1,3.2-3.9,3.8v2.7h16.2v-2.7
	c-2.9-0.6-3.9-1.3-3.9-3.8v-16c2.4-2.8,4.4-3.6,6.2-3.6c3.2,0,4.7,2.1,4.7,5.6v14c0,2.5-1,3.2-3.3,3.8v2.7h15.6v-2.7
	C441.9,195.7,440.8,195,440.8,192.6 M392.4,170.5c3.6,0,5.3,3.5,5.6,9h-11.8C386.6,173.8,388.9,170.5,392.4,170.5 M393.5,167.4
	c-9.2,0-15.5,6.6-15.5,17.1c0,7.9,4.9,15.5,14.6,15.5c7.3,0,12.1-4.7,13.7-10.1l-2.1-1c-1.6,3-5,5-8.7,5c-5.3,0-8.9-4.1-9.4-11.1
	h20.3C406.3,173.9,402.4,167.4,393.5,167.4 M360.5,170.5c3.6,0,5.3,3.5,5.6,9h-11.8C354.7,173.8,356.9,170.5,360.5,170.5
	 M361.6,167.4c-9.2,0-15.5,6.6-15.5,17.1c0,7.9,4.9,15.5,14.6,15.5c7.3,0,12.1-4.7,13.7-10.1l-2.1-1c-1.6,3-5,5-8.7,5
	c-5.3,0-8.9-4.1-9.4-11.1h20.3C374.4,173.9,370.5,167.4,361.6,167.4 M342.4,194.3c-2.1,0-2.7-1.1-2.7-3.6v-23.3h-1.8l-10.4,2.6v2.3
	l0.8,0.2c2.4,0.5,3.1,1.6,3.1,3.6v14.7c-2.4,2.9-4.4,3.6-6.3,3.6c-3.2,0-4.7-2.1-4.7-5.6v-21.4h-1.8l-10.5,2.6v2.3l0.9,0.2
	c2.4,0.5,3,1.6,3,3.6v13.5c0,6.5,3.4,10.4,9.5,10.4c3.7,0,6.8-1.9,9.8-6.5v6.4h1.8l10.8-2.9v-2.7L342.4,194.3L342.4,194.3z
	 M271.2,177.5c-0.1-9.5,3.9-16.6,11.2-16.6c8.9-0.1,13.4,9.6,13.5,19.1c0.1,9.4-3.8,16.5-11.2,16.6
	C275.8,196.7,271.2,186.8,271.2,177.5 M305.2,177.9c0-10.6-7.6-20.2-21.4-20.2c-12.1,0-21.8,8.7-21.8,22c0,7.4,3.6,14.3,10.6,17.9
	c7.2,10.5,11.6,14.8,21.4,15l1.7-7.4c-6,0.8-13.6-1.6-20.1-6.4c2.4,0.8,5,1.2,8,1.2C295.5,199.9,305.2,191.1,305.2,177.9
	 M520.6,130.8V116c0-6.5-3.4-10.4-9.5-10.4c-3.7,0-6.8,1.9-9.8,6.4v-6.4h-1.8l-10.5,2.6v2.3l0.8,0.2c2.4,0.6,3,1.6,3,3.6v16.5
	c0,2.5-1.1,3.2-3.9,3.8v2.7h16.2v-2.7c-2.8-0.6-3.9-1.3-3.9-3.8v-16c2.4-2.8,4.4-3.6,6.2-3.6c3.2,0,4.7,2.1,4.7,5.6v14
	c0,2.5-1,3.2-3.3,3.8v2.7h15.6v-2.7C521.7,134,520.6,133.3,520.6,130.8 M482.8,105.4c-3.8,0.3-7.3,3-9.3,9.1v-8.9h-1.8l-10.5,2.6
	v2.3l0.8,0.2c2.4,0.6,3,1.6,3,3.6v16.4c0,2.4-0.8,3.2-3.9,3.8v2.7h17.5v-2.7c-4-0.6-5.2-1.5-5.2-3.8v-13.2c1.2-2.8,3.5-4.6,6.3-4.8
	c1.9-0.1,4,0.6,5.3,1.9l1.1-8.9C485.3,105.5,484.1,105.4,482.8,105.4 M444.5,108.8c3.6,0,5.3,3.5,5.6,9h-11.8
	C438.7,112.1,440.9,108.8,444.5,108.8 M445.5,105.6c-9.2,0-15.5,6.6-15.5,17.1c0,7.9,4.9,15.5,14.6,15.5c7.3,0,12.1-4.7,13.7-10.1
	l-2.1-1c-1.6,3-5,5-8.7,5c-5.3,0-8.9-4.1-9.4-11.1h20.3C458.4,112.2,454.4,105.6,445.5,105.6 M424.1,130.8V116
	c0-6.5-3.4-10.4-9.5-10.4c-3.7,0-6.8,1.9-9.8,6.4V94.2H403l-10.5,2.6V99l1,0.2c2.2,0.5,2.9,1.6,2.9,3.5v28c0,2.5-1.1,3.2-3.9,3.8
	v2.7h16.2v-2.7c-2.9-0.6-3.9-1.3-3.9-3.8v-16c2.4-2.8,4.4-3.6,6.2-3.6c3.2,0,4.7,2.1,4.7,5.6v14c0,2.5-1,3.2-3.3,3.8v2.7H428v-2.7
	C425.2,134,424.1,133.3,424.1,130.8 M389,132.5c-1.1,0.7-2.4,1.3-4.2,1.3c-3,0-4.9-1.8-4.9-5.3v-18.9h9v-3h-9v-9l-8.4,3.2v5.8h-5v3
	h5v19.4c0,6.1,3.3,9.4,9.2,9.4c4.1,0,7.3-2.7,9.1-4.1L389,132.5z M364.4,132.5c-2.1,0-2.7-1.1-2.7-3.6v-23.3h-1.8l-10.4,2.6v2.3
	l0.8,0.2c2.4,0.6,3.1,1.6,3.1,3.6V129c-2.4,2.9-4.4,3.6-6.3,3.6c-3.2,0-4.7-2.1-4.7-5.6v-21.4h-1.8l-10.5,2.6v2.3l0.9,0.2
	c2.4,0.6,3,1.6,3,3.6v13.5c0,6.5,3.4,10.4,9.5,10.4c3.7,0,6.8-1.9,9.8-6.5v6.4h1.8l10.8-2.9v-2.7L364.4,132.5L364.4,132.5z
	 M313.4,134.9c-5,0-8-7.2-8-15.4c0-6.3,2.2-10.7,6.1-10.7c5,0,8,7.3,8,15.3C319.5,130.5,317.3,134.9,313.4,134.9 M312.2,138.2
	c9,0,15.9-6.9,15.9-16.8c0-8.9-5.9-15.7-15.5-15.7c-9,0-15.8,7-15.8,16.9C296.7,131.4,302.5,138.2,312.2,138.2 M268.7,124l-7.1,7.6
	c4.2,4.2,10,6.5,16.6,6.5c9,0,15.2-4.7,15.2-12.3c0-14.6-22.5-11.7-22.5-21.1c0-3.6,2.7-5.6,6.1-5.6c3.8,0,6.4,3,8.5,9.6l6.9-6.3
	c-1.5-3-6.7-6.6-14.7-6.6c-9.3,0-14.5,4.8-14.5,11.4c0,14.7,22,11.2,22,21.2c0,4.2-3,6.5-6.9,6.5C274,134.9,271,131.4,268.7,124
	 M582.4,32.4c2.5,0,4.1,1.8,5,4l2.5-3.8c-1.1-0.8-3.4-1.9-6.9-1.9c-5.6,0-10,3.6-10,11.3v3.2H568V47h5.1v24.2c0,2.7-2.2,3.3-4.4,3.6
	v0.8h14.6v-0.8c-3.8-0.4-6.3-0.8-6.3-3.9V47h8.9v-1.8H577v-4.7C577,34,579.4,32.4,582.4,32.4 M552.6,74.4c-7.7,0-10.1-9.7-10.1-15.2
	c0-7.4,3.6-12.7,9-12.7c7.7,0,10.1,9.7,10.1,15.1C561.7,69,558,74.4,552.6,74.4 M551.9,76.4c7.5,0,13.9-6.5,13.9-16.6
	c0-9.1-5.5-15.5-13.5-15.5c-7.3,0-13.8,6.6-13.8,16.7C538.4,70.1,543.9,76.4,551.9,76.4 M504.3,87.1v0.6h3.7l16.3-39.1
	c0.6-1.4,1.5-2.1,3.6-2.5v-0.8h-10.3V46c4,0.7,5.3,1.2,4.1,4.1l-8,19.1l-8.1-19.1c-1.2-2.6-0.2-3.4,3.9-4.1v-0.8h-12.4V46
	c2.4,0.7,3,1.2,3.6,2.4l11.2,26L504.3,87.1z M494.2,72.1c-1.5,1.1-2.7,1.7-4.6,1.7c-3,0-5.2-1.4-5.2-5.9V47h9.7v-1.8h-9.7v-8.4
	l-3.8,2.1v6.3h-5.1V47h5.1v20.6c0,6.1,2.5,8.8,7.1,8.8c3.2,0,5.2-2,7-3.5L494.2,72.1z M470,71.2V44.4h-0.8l-7.5,2.4v0.8h0.5
	c3.1-0.1,4,1.4,4,3.9v19.6c0,2.7-2.2,3.3-4.5,3.6v0.8h12.8v-0.8C472.2,74.4,470,73.9,470,71.2 M468.1,39.4c1.7,0,3-1.3,3-3.1
	s-1.3-3.1-3-3.1c-1.8,0-3.1,1.3-3.1,3.1S466.3,39.4,468.1,39.4 M446.9,44.4c-6.1,0-10,3.3-10,8.4c0.1,9.3,17.4,7.5,17.5,16
	c0.1,3-2.5,5.9-6.7,5.9c-3.6,0-6.4-2.7-7.4-7l-4.5,2.7c2.4,3.9,6.8,6.1,11.5,6.1c6.6,0,10.8-4.2,10.7-9.3
	c-0.2-10.9-17.7-7.7-17.7-15.8c0-3.1,2.5-5.2,6.5-5.2c3.4,0,5.8,2.3,6.9,6.2l4.3-2.9C456.8,47.5,453.9,44.4,446.9,44.4 M430,44.5
	c-3.2,0.1-6.1,2.8-8.3,8.9v-9h-0.9l-7.5,2.4v0.8h0.5c3.1-0.1,4,1.4,4,3.9v19.3c0,2.4-1,3.3-4.5,3.9v0.8h14.6v-0.8
	c-4.7-0.6-6.3-1.5-6.3-3.9V55.1c1.8-4.4,4.7-6.9,8-7c1.2-0.1,2.5,0.4,3.6,0.8l0.5-4.2C432.8,44.5,431.6,44.4,430,44.5 M398.4,46.3
	c5.4,0,7.3,4.6,7.7,10.5h-16.8C389.9,50.8,392.6,46.3,398.4,46.3 M399.4,44.4c-8,0-14,6.2-14,16.9c0,8.3,5.3,15.2,13.1,15.2
	c5.8,0,10.1-3.8,11.7-8.6l-0.7-0.3c-2.1,2.6-4.8,5.2-9.3,5.2c-6.5,0-10.9-5.6-11-14.3h21.2C410.5,51.2,406.7,44.4,399.4,44.4
	 M384.8,45.2h-10.3V46c4,0.7,5.3,1.2,4.1,4.1l-8,20.1l-8.2-20.1c-1.1-2.6-0.2-3.4,4-4.1v-0.8H354v0.8c2.4,0.6,3.1,1.1,3.5,2.3
	l11.7,28h0.8l11.2-28c0.5-1.4,1.4-1.9,3.6-2.4L384.8,45.2L384.8,45.2z M348.6,71.2V44.4h-0.9l-7.5,2.4v0.8h0.5c3.1-0.1,4,1.4,4,3.9
	v19.6c0,2.7-2.2,3.3-4.5,3.6v0.8h12.8v-0.8C350.8,74.4,348.6,73.9,348.6,71.2 M346.8,39.4c1.7,0,3-1.3,3-3.1s-1.3-3.1-3-3.1
	c-1.8,0-3.1,1.3-3.1,3.1S344.9,39.4,346.8,39.4 M331.9,71.2V54.4c0-6.9-4.4-10-8.9-10c-3.6,0-6.7,2.2-10.4,7v-7h-0.9l-7.5,2.4v0.8
	h0.5c3.1-0.1,4,1.4,4,3.9v19.6c0,2.7-2.2,3.3-4.5,3.6v0.8h12.8v-0.8c-2.3-0.4-4.5-0.9-4.5-3.6V52.9c3.2-3.6,5.6-5,8.9-5
	c3.7,0,6.6,2,6.6,7.1v16.2c0,2.7-2.2,3.3-4.5,3.6v0.8h12.8v-0.8C334.1,74.4,331.9,73.9,331.9,71.2 M303.2,35h-13v0.8
	c3.7,0.2,5.5,1,5.5,4.7v19.8c0,8.7-3.9,13.8-11.2,13.8c-8,0-12.7-5.9-12.7-13.5V40.6c0-3.7,1.8-4.6,5.4-4.7V35h-15.1v0.8
	c3.6,0.2,5.5,1,5.5,4.7v21c0,9.8,6.2,14.9,15.6,14.9c9.4,0,14.7-5.7,14.7-15.3V40.6c0-3.7,1.7-4.6,5.4-4.7L303.2,35L303.2,35z"/>
<g>
	<path class="st1" d="M57.5,178.5c-11.5,5.9-24.6,10-38.8,12c9.2,13.1,21.5,24,35.8,31.5c1-0.5,47.5-20.5,47.5-64.5v76.3
		c17.1,0,33.3-4.2,47.5-11.7c-1-0.5-2-1-3-1.5c-17.8-9-44.5-29.8-44.5-63.1l0,0v-42.1C101.9,141.1,84.7,164.6,57.5,178.5z"/>
	<path class="st1" d="M101.9,73.4v-42c0,33.7-27.3,54.3-44.5,63.1c-16.3,8.3-36,13.2-57.2,13.2v24.4c0,6,0.5,11.9,1.5,17.6
		c20.6-0.2,39.8-5.1,55.7-13.2C71.8,129.1,101.9,108.9,101.9,73.4v42c0,27.1,19,50,44.5,63.1c11.5,5.9,24.6,10,38.8,12
		c8.4-12,14.3-25.8,16.9-40.8c-20.6-0.2-39.8-5.1-55.7-13.2C132,129.1,101.9,108.9,101.9,73.4z"/>
	<path class="st1" d="M100.9,0C64.2,0.1,29.7,7.8,0.2,20.9v44.7c21.2,0,40.9-4.9,57.2-13.2C92.9,34.3,99.6,7.4,100.9,0z"/>
	<path class="st1" d="M101.9,0v31.4c0,33.7,27.2,54.2,44.5,63.1c16.3,8.3,36,13.2,57.2,13.2V20.9C173.9,7.6,139.1,0,101.9,0z"/>
</g>
</svg>
